<svg 
  width="24" 
  height="24" 
  viewBox="0 0 24 24" 
  fill="none" 
  xmlns="http://www.w3.org/2000/svg"
  role="img"
  aria-label="SIEM Platform Logo"
>
  <!-- Background circle representing unified data collection -->
  <circle 
    cx="12" 
    cy="12" 
    r="11" 
    fill="currentColor" 
    class="primary-fill"
    opacity="0.1"
  />
  
  <!-- Outer ring representing security monitoring -->
  <path
    d="M12 2C6.48 2 2 6.48 2 12s4.48 10 10 10 10-4.48 10-10S17.52 2 12 2zm0 18c-4.41 0-8-3.59-8-8s3.59-8 8-8 8 3.59 8 8-3.59 8-8 8z"
    fill="currentColor"
    class="primary-fill"
  />

  <!-- Central shield shape representing security -->
  <path
    d="M12 4L6 7v4c0 4.52 2.61 8.73 6 9.93 3.39-1.2 6-5.41 6-9.93V7l-6-3z"
    fill="currentColor"
    class="primary-fill"
    opacity="0.9"
  />

  <!-- Information dots representing event management -->
  <circle cx="12" cy="9" r="1" fill="white" />
  <circle cx="12" cy="12" r="1" fill="white" />
  <circle cx="12" cy="15" r="1" fill="white" />

  <style>
    .primary-fill {
      fill: var(--color-primary, #1976D2);
    }
    @media (prefers-color-scheme: dark) {
      .primary-fill {
        fill: var(--color-primary-dark, #90CAF9);
      }
    }
  </style>
</svg>